<svg xmlns="http://www.w3.org/2000/svg" width="700" height="200" viewBox="0 0 700 200">
  <style>* {
    font-family: 'Segoe UI', Ubuntu, "Helvetica Neue", Sans-Serif
  }</style>
  <rect x="1" y="1" rx="5" ry="5" height="99%" width="99.71428571428571%" stroke="#30363D" stroke-width="1" fill="#2b213a" stroke-opacity="1"></rect>
  <text x="30" y="40" style="font-size: 22px; fill: #FF66C4;">winter24</text>
  <g transform="translate(0,40)">
    <g transform="translate(30,30)">
      <g transform="translate(0,0)" width="14" height="14" fill="#F8D866">
        <path fill-rule="evenodd" d="M8 0C3.58 0 0 3.58 0 8c0 3.54 2.29 6.53 5.47 7.59.4.07.55-.17.55-.38 0-.19-.01-.82-.01-1.49-2.01.37-2.53-.49-2.69-.94-.09-.23-.48-.94-.82-1.13-.28-.15-.68-.52-.01-.53.63-.01 1.08.58 1.23.82.72 1.21 1.87.87 2.33.66.07-.52.28-.87.51-1.07-1.78-.2-3.64-.89-3.64-3.95 0-.87.31-1.59.82-2.15-.08-.2-.36-1.02.08-2.12 0 0 .67-.21 2.2.82.64-.18 1.32-.27 2-.27.68 0 1.36.09 2 .27 1.53-1.04 2.2-.82 2.2-.82.44 1.1.16 1.92.08 2.12.51.56.82 1.27.82 2.15 0 3.07-1.87 3.75-3.65 3.95.29.25.54.73.54 1.48 0 1.07-.01 1.93-.01 2.2 0 .21.15.46.55.38A8.013 8.013 0 0016 8c0-4.42-3.58-8-8-8z"></path>
      </g>
      <text x="21" y="14" style="fill: #C9D1D9; font-size: 14px;">1.07k Contributions on GitHub</text>
      <text x="21" y="42" style="fill: #C9D1D9; font-size: 14px;">32 Public Repos</text>
      <text x="21" y="70" style="fill: #C9D1D9; font-size: 14px;">Joined GitHub 8 years ago</text>
      <text x="21" y="98" style="fill: #C9D1D9; font-size: 14px;">@gmail.com</text>
    </g>
  </g>
</svg>
