
<svg xmlns="http://www.w3.org/2000/svg" width="700" height="200" viewBox="0 0 700 200">
  <style>
    * {
      font-family: 'Segoe UI', Ubuntu, "Helvetica Neue", Sans-Serif;
    }
  </style>
  <!-- Background -->
  <rect x="1" y="1" rx="5" ry="5" height="198" width="698" fill="#2b213a" stroke="#30363D" stroke-width="1"></rect>
  
  <!-- Title -->
  <text x="30" y="40" style="font-size: 22px; fill: #FF66C4;">
    GitHub Profile Summary: winter24
  </text>
  
  <!-- Contributions -->
  <text x="30" y="80" style="font-size: 16px; fill: #C9D1D9;">
    Contributions in the Last Year: 0
  </text>
  
  <!-- Graph -->
  <path d="M0,100.00 L1.92,100.00 L3.84,100.00 L5.75,100.00 L7.67,100.00 L9.59,100.00 L11.51,100.00 L13.42,100.00 L15.34,100.00 L17.26,100.00 L19.18,100.00 L21.10,100.00 L23.01,100.00 L24.93,100.00 L26.85,100.00 L28.77,100.00 L30.68,100.00 L32.60,100.00 L34.52,100.00 L36.44,100.00 L38.36,100.00 L40.27,100.00 L42.19,100.00 L44.11,100.00 L46.03,100.00 L47.95,100.00 L49.86,100.00 L51.78,100.00 L53.70,100.00 L55.62,100.00 L57.53,100.00 L59.45,100.00 L61.37,100.00 L63.29,100.00 L65.21,100.00 L67.12,100.00 L69.04,100.00 L70.96,100.00 L72.88,100.00 L74.79,100.00 L76.71,100.00 L78.63,100.00 L80.55,100.00 L82.47,100.00 L84.38,100.00 L86.30,100.00 L88.22,100.00 L90.14,100.00 L92.05,100.00 L93.97,100.00 L95.89,100.00 L97.81,100.00 L99.73,100.00 L101.64,100.00 L103.56,100.00 L105.48,100.00 L107.40,100.00 L109.32,100.00 L111.23,100.00 L113.15,100.00 L115.07,100.00 L116.99,100.00 L118.90,100.00 L120.82,100.00 L122.74,100.00 L124.66,100.00 L126.58,100.00 L128.49,100.00 L130.41,100.00 L132.33,100.00 L134.25,100.00 L136.16,100.00 L138.08,100.00 L140.00,100.00 L141.92,100.00 L143.84,100.00 L145.75,100.00 L147.67,100.00 L149.59,100.00 L151.51,100.00 L153.42,100.00 L155.34,100.00 L157.26,100.00 L159.18,100.00 L161.10,100.00 L163.01,100.00 L164.93,100.00 L166.85,100.00 L168.77,100.00 L170.68,100.00 L172.60,100.00 L174.52,100.00 L176.44,100.00 L178.36,100.00 L180.27,100.00 L182.19,100.00 L184.11,100.00 L186.03,100.00 L187.95,100.00 L189.86,100.00 L191.78,100.00 L193.70,100.00 L195.62,100.00 L197.53,100.00 L199.45,100.00 L201.37,100.00 L203.29,100.00 L205.21,100.00 L207.12,100.00 L209.04,100.00 L210.96,100.00 L212.88,100.00 L214.79,100.00 L216.71,100.00 L218.63,100.00 L220.55,100.00 L222.47,100.00 L224.38,100.00 L226.30,100.00 L228.22,100.00 L230.14,100.00 L232.05,100.00 L233.97,100.00 L235.89,100.00 L237.81,100.00 L239.73,100.00 L241.64,100.00 L243.56,100.00 L245.48,100.00 L247.40,100.00 L249.32,100.00 L251.23,100.00 L253.15,100.00 L255.07,100.00 L256.99,100.00 L258.90,100.00 L260.82,100.00 L262.74,100.00 L264.66,100.00 L266.58,100.00 L268.49,100.00 L270.41,100.00 L272.33,100.00 L274.25,100.00 L276.16,100.00 L278.08,100.00 L280.00,100.00 L281.92,100.00 L283.84,100.00 L285.75,100.00 L287.67,100.00 L289.59,100.00 L291.51,100.00 L293.42,100.00 L295.34,100.00 L297.26,100.00 L299.18,100.00 L301.10,100.00 L303.01,100.00 L304.93,100.00 L306.85,100.00 L308.77,100.00 L310.68,100.00 L312.60,100.00 L314.52,100.00 L316.44,100.00 L318.36,100.00 L320.27,100.00 L322.19,100.00 L324.11,100.00 L326.03,100.00 L327.95,100.00 L329.86,100.00 L331.78,100.00 L333.70,100.00 L335.62,100.00 L337.53,100.00 L339.45,100.00 L341.37,100.00 L343.29,100.00 L345.21,100.00 L347.12,100.00 L349.04,100.00 L350.96,100.00 L352.88,100.00 L354.79,100.00 L356.71,100.00 L358.63,100.00 L360.55,100.00 L362.47,100.00 L364.38,100.00 L366.30,100.00 L368.22,100.00 L370.14,100.00 L372.05,100.00 L373.97,100.00 L375.89,100.00 L377.81,100.00 L379.73,100.00 L381.64,100.00 L383.56,100.00 L385.48,100.00 L387.40,100.00 L389.32,100.00 L391.23,100.00 L393.15,100.00 L395.07,100.00 L396.99,100.00 L398.90,100.00 L400.82,100.00 L402.74,100.00 L404.66,100.00 L406.58,100.00 L408.49,100.00 L410.41,100.00 L412.33,100.00 L414.25,100.00 L416.16,100.00 L418.08,100.00 L420.00,100.00 L421.92,100.00 L423.84,100.00 L425.75,100.00 L427.67,100.00 L429.59,100.00 L431.51,100.00 L433.42,100.00 L435.34,100.00 L437.26,100.00 L439.18,100.00 L441.10,100.00 L443.01,100.00 L444.93,100.00 L446.85,100.00 L448.77,100.00 L450.68,100.00 L452.60,100.00 L454.52,100.00 L456.44,100.00 L458.36,100.00 L460.27,100.00 L462.19,100.00 L464.11,100.00 L466.03,100.00 L467.95,100.00 L469.86,100.00 L471.78,100.00 L473.70,100.00 L475.62,100.00 L477.53,100.00 L479.45,100.00 L481.37,100.00 L483.29,100.00 L485.21,100.00 L487.12,100.00 L489.04,100.00 L490.96,100.00 L492.88,100.00 L494.79,100.00 L496.71,100.00 L498.63,100.00 L500.55,100.00 L502.47,100.00 L504.38,100.00 L506.30,100.00 L508.22,100.00 L510.14,100.00 L512.05,100.00 L513.97,100.00 L515.89,100.00 L517.81,100.00 L519.73,100.00 L521.64,100.00 L523.56,100.00 L525.48,100.00 L527.40,100.00 L529.32,100.00 L531.23,100.00 L533.15,100.00 L535.07,100.00 L536.99,100.00 L538.90,100.00 L540.82,100.00 L542.74,100.00 L544.66,100.00 L546.58,100.00 L548.49,100.00 L550.41,100.00 L552.33,100.00 L554.25,100.00 L556.16,100.00 L558.08,100.00 L560.00,100.00 L561.92,100.00 L563.84,100.00 L565.75,100.00 L567.67,100.00 L569.59,100.00 L571.51,100.00 L573.42,100.00 L575.34,100.00 L577.26,100.00 L579.18,100.00 L581.10,100.00 L583.01,100.00 L584.93,100.00 L586.85,100.00 L588.77,100.00 L590.68,100.00 L592.60,100.00 L594.52,100.00 L596.44,100.00 L598.36,100.00 L600.27,100.00 L602.19,100.00 L604.11,100.00 L606.03,100.00 L607.95,100.00 L609.86,100.00 L611.78,100.00 L613.70,100.00 L615.62,100.00 L617.53,100.00 L619.45,100.00 L621.37,100.00 L623.29,100.00 L625.21,100.00 L627.12,100.00 L629.04,100.00 L630.96,100.00 L632.88,100.00 L634.79,100.00 L636.71,100.00 L638.63,100.00 L640.55,100.00 L642.47,100.00 L644.38,100.00 L646.30,100.00 L648.22,100.00 L650.14,100.00 L652.05,100.00 L653.97,100.00 L655.89,100.00 L657.81,100.00 L659.73,100.00 L661.64,100.00 L663.56,100.00 L665.48,100.00 L667.40,100.00 L669.32,100.00 L671.23,100.00 L673.15,100.00 L675.07,100.00 L676.99,100.00 L678.90,100.00 L680.82,100.00 L682.74,100.00 L684.66,100.00 L686.58,100.00 L688.49,100.00 L690.41,100.00 L692.33,100.00 L694.25,100.00 L696.16,100.00 L698.08,100.00" fill="none" stroke="#F8D866" stroke-width="2" />
</svg>
